# xmcd CD database file
#
# Track frame offsets:
#	150
#	21470
#	41102
#	50867
#	62300
#	77702
#	96290
#	108387
#	126147
#	139675
#
# Disc length: 2088 seconds
#
# Revision: 0
# Processed by: cddbd v1.5PL3 Copyright (c) Steve Scherf et al.
# Submitted via: CDex 1.50beta10
#
DISCID=8a08260a
DTITLE=Calvin Leavy - The Best Of Calvin Leavy
DYEAR=2000
DGENRE=Blues
TTITLE0=Cummins Prison Farm
TTITLE1=Going To The Dogs Part 1&2
TTITLE2=Give Me Love That I Can Feel
TTITLE3=Enjoy Being Hurt By You
TTITLE4=Funky Jam (Inst.)
TTITLE5=Born Unlucky
TTITLE6=I Want To Be The Last To Cry
TTITLE7=Free From Cummins Prison Farm
TTITLE8=If Life Last Luck Is Bound To Change
TTITLE9=Is It All Worth That I Am Going Through
EXTD=YEAR: 2000
EXTT0=
EXTT1=
EXTT2=
EXTT3=
EXTT4=
EXTT5=
EXTT6=
EXTT7=
EXTT8=
EXTT9=
PLAYORDER=
